<svg xmlns="http://www.w3.org/2000/svg" viewBox="0 0 512 512" role="img" aria-label="Blindness power-up">
  <defs>
    <radialGradient id="blindCore" cx="50%" cy="36%" r="72%">
      <stop offset="0" stop-color="#ffd1cd"/>
      <stop offset="0.38" stop-color="#3d1113"/>
      <stop offset="1" stop-color="#120405"/>
    </radialGradient>
    <linearGradient id="blindRing" x1="92" y1="69" x2="398" y2="440" gradientUnits="userSpaceOnUse">
      <stop offset="0" stop-color="#ff7672"/>
      <stop offset="0.3" stop-color="#ff201c"/>
      <stop offset="0.72" stop-color="#a20008"/>
      <stop offset="1" stop-color="#590008"/>
    </linearGradient>
    <filter id="blindShadow" x="-22%" y="-20%" width="144%" height="148%">
      <feDropShadow dx="0" dy="14" stdDeviation="14" flood-color="#4d0005" flood-opacity="0.52"/>
      <feDropShadow dx="0" dy="0" stdDeviation="8" flood-color="#ff5a50" flood-opacity="0.58"/>
    </filter>
    <radialGradient id="spot" cx="50%" cy="70%" r="58%">
      <stop offset="0" stop-color="#fff8f3"/>
      <stop offset="0.55" stop-color="#ff9f99"/>
      <stop offset="1" stop-color="#ff4944" stop-opacity="0"/>
    </radialGradient>
  </defs>
  <rect width="512" height="512" fill="none"/>
  <g filter="url(#blindShadow)">
    <circle cx="248" cy="260" r="176" fill="url(#blindRing)"/>
    <circle cx="248" cy="260" r="141" fill="#3b090c"/>
    <circle cx="248" cy="260" r="128" fill="url(#blindCore)"/>
    <path d="M248 119c-44 0-78 28-91 91l-27 136h236l-27-136c-13-63-47-91-91-91Z" fill="#ffaca5" opacity="0.22"/>
    <ellipse cx="248" cy="335" rx="91" ry="25" fill="url(#spot)"/>
    <circle cx="248" cy="237" r="28" fill="#fff7f3"/>
    <path d="M211 305c5-37 18-52 37-52s32 15 37 52" fill="#fff7f3"/>
    <path d="M221 280c-20 11-30 27-35 48M275 280c20 11 30 27 35 48" fill="none" stroke="#fff7f3" stroke-linecap="round" stroke-width="18"/>
    <path d="M145 142c55-44 145-52 213-12" fill="none" stroke="#ffb2ad" stroke-linecap="round" stroke-width="18" opacity="0.42"/>
    <circle cx="390" cy="133" r="72" fill="#fff3d1"/>
    <circle cx="390" cy="133" r="54" fill="#119cff"/>
    <path d="M390 101v64M358 133h64" fill="none" stroke="#ffffff" stroke-linecap="round" stroke-width="24"/>
  </g>
</svg>
